<svg xmlns="http://www.w3.org/2000/svg" xmlns:xlink="http://www.w3.org/1999/xlink" width="500" zoomAndPan="magnify" viewBox="0 0 375 374.999991" height="500" preserveAspectRatio="xMidYMid meet" version="1.0"><defs><g/></defs><rect x="-37.5" width="450" fill="#ffffff" y="-37.499999" height="449.999989" fill-opacity="1"/><rect x="-37.5" width="450" fill="#ffffff" y="-37.499999" height="449.999989" fill-opacity="1"/><g fill="#050a30" fill-opacity="1"><g transform="translate(87.944282, 220.718335)"><g><path d="M 47.308594 -20.25 L 25.355469 -20.25 L 25.867188 -21.355469 L 33.183594 -21.355469 L 47.394531 -46.03125 L 47.394531 -47.734375 L 0.679688 -47.734375 L 0.679688 -27.566406 L 14.636719 -27.566406 L -0.511719 -2.296875 L -0.511719 0 L 47.308594 0 Z M 47.308594 -20.25 "/></g></g></g><g fill="#050a30" fill-opacity="1"><g transform="translate(136.013378, 220.718335)"><g><path d="M 25.953125 1.363281 C 39.90625 1.363281 51.222656 -9.957031 51.222656 -23.910156 C 51.222656 -37.863281 39.90625 -49.179688 25.953125 -49.179688 C 11.996094 -49.179688 0.679688 -37.863281 0.679688 -23.910156 C 0.679688 -9.957031 11.996094 1.363281 25.953125 1.363281 Z M 25.953125 -28.25 C 28.335938 -28.25 30.292969 -26.292969 30.292969 -23.910156 C 30.292969 -21.527344 28.335938 -19.570312 25.953125 -19.570312 C 23.570312 -19.570312 21.613281 -21.527344 21.613281 -23.910156 C 21.613281 -26.292969 23.570312 -28.25 25.953125 -28.25 Z M 25.953125 -28.25 "/></g></g></g><g fill="#050a30" fill-opacity="1"><g transform="translate(187.740841, 220.718335)"><g><path d="M 25.953125 1.363281 C 39.90625 1.363281 51.222656 -9.957031 51.222656 -23.910156 C 51.222656 -37.863281 39.90625 -49.179688 25.953125 -49.179688 C 11.996094 -49.179688 0.679688 -37.863281 0.679688 -23.910156 C 0.679688 -9.957031 11.996094 1.363281 25.953125 1.363281 Z M 25.953125 -28.25 C 28.335938 -28.25 30.292969 -26.292969 30.292969 -23.910156 C 30.292969 -21.527344 28.335938 -19.570312 25.953125 -19.570312 C 23.570312 -19.570312 21.613281 -21.527344 21.613281 -23.910156 C 21.613281 -26.292969 23.570312 -28.25 25.953125 -28.25 Z M 25.953125 -28.25 "/></g></g></g><g fill="#050a30" fill-opacity="1"><g transform="translate(239.468304, 220.718335)"><g><path d="M 0.765625 11.828125 L 21.699219 11.828125 L 21.699219 -23.910156 C 21.699219 -26.292969 23.65625 -28.25 26.035156 -28.25 C 28.417969 -28.25 30.375 -26.292969 30.375 -23.910156 C 30.375 -21.527344 28.417969 -19.570312 26.035156 -19.570312 L 22.886719 -19.570312 L 22.886719 1.363281 L 26.035156 1.363281 C 39.992188 1.363281 51.308594 -9.957031 51.308594 -23.910156 C 51.308594 -37.863281 39.992188 -49.179688 26.035156 -49.179688 C 12.082031 -49.179688 0.765625 -37.863281 0.765625 -23.910156 Z M 0.765625 11.828125 "/></g></g></g><g fill="#512da8" fill-opacity="1"><g transform="translate(85.694282, 216.968335)"><g><path d="M 47.308594 -20.25 L 25.355469 -20.25 L 25.867188 -21.355469 L 33.183594 -21.355469 L 47.394531 -46.03125 L 47.394531 -47.734375 L 0.679688 -47.734375 L 0.679688 -27.566406 L 14.636719 -27.566406 L -0.511719 -2.296875 L -0.511719 0 L 47.308594 0 Z M 47.308594 -20.25 "/></g></g></g><g fill="#512da8" fill-opacity="1"><g transform="translate(133.763378, 216.968335)"><g><path d="M 25.953125 1.363281 C 39.90625 1.363281 51.222656 -9.957031 51.222656 -23.910156 C 51.222656 -37.863281 39.90625 -49.179688 25.953125 -49.179688 C 11.996094 -49.179688 0.679688 -37.863281 0.679688 -23.910156 C 0.679688 -9.957031 11.996094 1.363281 25.953125 1.363281 Z M 25.953125 -28.25 C 28.335938 -28.25 30.292969 -26.292969 30.292969 -23.910156 C 30.292969 -21.527344 28.335938 -19.570312 25.953125 -19.570312 C 23.570312 -19.570312 21.613281 -21.527344 21.613281 -23.910156 C 21.613281 -26.292969 23.570312 -28.25 25.953125 -28.25 Z M 25.953125 -28.25 "/></g></g></g><g fill="#512da8" fill-opacity="1"><g transform="translate(185.490841, 216.968335)"><g><path d="M 25.953125 1.363281 C 39.90625 1.363281 51.222656 -9.957031 51.222656 -23.910156 C 51.222656 -37.863281 39.90625 -49.179688 25.953125 -49.179688 C 11.996094 -49.179688 0.679688 -37.863281 0.679688 -23.910156 C 0.679688 -9.957031 11.996094 1.363281 25.953125 1.363281 Z M 25.953125 -28.25 C 28.335938 -28.25 30.292969 -26.292969 30.292969 -23.910156 C 30.292969 -21.527344 28.335938 -19.570312 25.953125 -19.570312 C 23.570312 -19.570312 21.613281 -21.527344 21.613281 -23.910156 C 21.613281 -26.292969 23.570312 -28.25 25.953125 -28.25 Z M 25.953125 -28.25 "/></g></g></g><g fill="#512da8" fill-opacity="1"><g transform="translate(237.218304, 216.968335)"><g><path d="M 0.765625 11.828125 L 21.699219 11.828125 L 21.699219 -23.910156 C 21.699219 -26.292969 23.65625 -28.25 26.035156 -28.25 C 28.417969 -28.25 30.375 -26.292969 30.375 -23.910156 C 30.375 -21.527344 28.417969 -19.570312 26.035156 -19.570312 L 22.886719 -19.570312 L 22.886719 1.363281 L 26.035156 1.363281 C 39.992188 1.363281 51.308594 -9.957031 51.308594 -23.910156 C 51.308594 -37.863281 39.992188 -49.179688 26.035156 -49.179688 C 12.082031 -49.179688 0.765625 -37.863281 0.765625 -23.910156 Z M 0.765625 11.828125 "/></g></g></g></svg>